<svg xmlns="http://www.w3.org/2000/svg" viewBox="0 0 416.991 416.991"><path d="M187.41 101.165c-1.592-.916-3.403-1.4-5.24-1.4-3.738 0-7.222 2.01-9.1 5.262-2.884 5.01-1.157 11.44 3.862 14.338 1.59.916 3.402 1.4 5.238 1.4 3.74 0 7.224-2.01 9.1-5.262 2.885-5.01 1.158-11.44-3.86-14.338zM110.257 171.672c-1.835 0-3.646.484-5.258 1.412-5.008 2.898-6.728 9.33-3.842 14.327 1.868 3.246 5.354 5.262 9.1 5.263 1.836 0 3.647-.484 5.25-1.407 2.43-1.402 4.165-3.665 4.892-6.373.727-2.71.354-5.542-1.05-7.97-1.87-3.24-5.354-5.25-9.093-5.25zM136.574 269.904c-5.79 0-10.5 4.71-10.5 10.5s4.71 10.5 10.5 10.5 10.5-4.71 10.5-10.5-4.71-10.5-10.5-10.5zM240.07 297.647c-1.598-.927-3.42-1.417-5.266-1.417-3.73 0-7.208 2.003-9.1 5.262-2.885 5.01-1.158 11.44 3.833 14.322 1.598.926 3.42 1.416 5.266 1.416 3.732 0 7.214-2.006 9.1-5.262 1.4-2.43 1.77-5.257 1.04-7.963-.727-2.712-2.47-4.975-4.872-6.358zM306.718 224.323c-1.836 0-3.647.484-5.25 1.407-2.433 1.404-4.17 3.672-4.895 6.384-.725 2.712-.348 5.544 1.045 7.947 1.868 3.246 5.355 5.262 9.1 5.263 1.836 0 3.647-.484 5.25-1.407 2.433-1.404 4.17-3.672 4.894-6.384.725-2.712.348-5.544-1.045-7.947-1.868-3.246-5.354-5.262-9.1-5.262z"/><path d="M416.97 206.596l-.013-.83c-.064-5.28-4.222-9.6-9.494-9.865-14.875-.75-28.007-9.638-34.27-23.192-1.245-2.694-3.623-4.696-6.49-5.465-2.866-.77-5.925-.224-8.352 1.487-6.705 4.73-14.926 7.335-23.145 7.336-6.964 0-13.858-1.854-19.935-5.363-13.458-7.77-21.242-22.804-19.83-38.3.27-2.955-.79-5.878-2.888-7.976-2.1-2.1-5.032-3.152-7.977-2.89-1.195.11-2.41.165-3.614.165-14.27 0-27.56-7.662-34.682-19.996-7.77-13.458-6.994-30.37 1.976-43.084 1.71-2.425 2.257-5.485 1.488-8.352-.768-2.867-2.77-5.245-5.464-6.49-13.548-6.262-22.434-19.387-23.188-34.254-.268-5.27-4.583-9.424-9.858-9.492l-.816-.013c-.64-.01-1.278-.02-1.92-.02C93.53 0 0 93.53 0 208.496s93.53 208.496 208.496 208.496 208.495-93.53 208.495-208.496c0-.635-.01-1.267-.02-1.9zM208.496 396.99C104.56 396.99 20 312.434 20 208.497c0-101.888 81.258-185.154 182.372-188.398 3.158 14.763 11.764 27.746 24.107 36.418-8.064 17.495-7.342 38.18 2.48 55.19 9.77 16.925 27.277 27.985 46.566 29.748 1.76 19.188 12.73 36.746 29.744 46.57 9.114 5.262 19.466 8.043 29.936 8.042 8.82 0 17.392-1.897 25.258-5.544 8.676 12.343 21.66 20.947 36.427 24.102-3.24 101.113-86.506 182.367-188.394 182.367z"/></svg>